<svg xmlns="http://www.w3.org/2000/svg" viewBox="0 0 256 256" fill="none">
  <rect width="256" height="256" rx="48" fill="#7C3AED"/>
  <path d="M48 158V100H62V108C65 102 71 98 80 98C95 98 106 110 106 128V132C106 150 95 162 80 162C71 162 65 158 62 152V186H48V158ZM62 130C62 140 68 148 77 148C86 148 92 140 92 130V128C92 118 86 110 77 110C68 110 62 118 62 128V130Z" fill="white"/>
  <path d="M116 100H130V160H116V100Z" fill="white"/>
  <path d="M138 100H152V160H138V100Z" fill="white"/>
  <path d="M180 162C162 162 152 150 152 130V128C152 108 162 98 180 98C198 98 208 108 208 128V138H166C167 146 172 150 180 150C187 150 192 146 195 140L206 146C202 156 193 162 180 162ZM166 128H194C193 120 188 112 180 112C172 112 167 120 166 128Z" fill="white"/>
  <path d="M216 100H230V112C233 104 238 100 246 100V114C238 114 230 120 230 130V160H216V100Z" fill="white"/>
</svg>
