<svg xmlns="http://www.w3.org/2000/svg" viewBox="0 0 256 256" fill="none">
  <path d="M128 0C57.307 0 0 57.307 0 128C0 198.693 57.307 256 128 256C198.693 256 256 198.693 256 128C256 57.307 198.693 0 128 0ZM128 224C75.065 224 32 180.935 32 128C32 75.065 75.065 32 128 32C180.935 32 224 75.065 224 128C224 180.935 180.935 224 128 224Z" fill="#000000"/>
  <path d="M128 64C92.652 64 64 92.652 64 128C64 163.348 92.652 192 128 192C163.348 192 192 163.348 192 128C192 92.652 163.348 64 128 64ZM128 160C110.327 160 96 145.673 96 128C96 110.327 110.327 96 128 96C145.673 96 160 110.327 160 128C160 145.673 145.327 160 128 160Z" fill="#000000"/>
  <circle cx="128" cy="128" r="16" fill="#000000"/>
</svg>
