<?xml version="1.0" encoding="UTF-8"?>
<svg width="350" height="136.84" version="1.1" viewBox="0 0 349.99997 136.84119" xmlns="http://www.w3.org/2000/svg" xmlns:cc="http://creativecommons.org/ns#" xmlns:dc="http://purl.org/dc/elements/1.1/" xmlns:rdf="http://www.w3.org/1999/02/22-rdf-syntax-ns#"><metadata><rdf:RDF><cc:Work rdf:about=""><dc:format>image/svg+xml</dc:format><dc:type rdf:resource="http://purl.org/dc/dcmitype/StillImage"/><dc:title/></cc:Work></rdf:RDF></metadata><g fill="#f40000" stroke-width="2.4912"><path class="st0" d="m151.46 110.18c-8.2208-5.9788-18.683-8.4698-27.652-8.2208-9.2172 0.49823-13.452 7.2243-13.452 7.2243-4.2349-7.2243-12.455-11.957-25.41-11.957-20.926 0.24912-41.602 9.9645-58.043 9.9645-15.694 0-27.154-9.9645-26.905-27.403 0.74734-30.641 26.655-58.541 46.086-70.998 11.21-7.2243 20.428-9.2172 26.655-8.719 4.484 0.49823 9.9646 5.7296 6.477 13.203-4.9823 11.21-11.957 10.213-11.459 4.9823 0.24912-3.4876 2.4912-5.7296 4.2349-6.7261 1.2455-0.74734 2.9894-0.99646 3.9858-0.99646 0.99646-0.74734 1.7438-6.9752-6.2279-4.9823-7.9716 1.993-17.687 9.9646-26.905 19.93-9.4663 10.213-23.915 29.396-27.403 49.573-1.4946 9.7154-0.24911 26.655 21.673 26.655 18.683-0.24912 46.584-12.455 71.994-12.206 9.9646 0.24912 18.434 2.7403 25.161 6.9752 6.477 3.7367 14.448 9.7154 17.188 13.701"/><path class="st0" d="m142.99 69.58c-4.7331 2.4912-2.9894-1.993-1.7438-3.9858 1.7438-2.7403 22.421-37.367 22.421-37.367h-10.961l-1.2455 1.993s-2.2421-3.4876-5.9788-3.2385c-11.21 0.74735-24.164 18.434-30.143 26.157-5.7296 7.7225-18.434 22.67-24.912 19.93-7.2243-2.7403 0-16.192 4.7331-23.915 4.9823-8.4699 14.199-16.939 17.687-16.939 4.484-0.24912 2.7403 3.9858 2.7403 3.9858s-3.2385-0.49823-5.7296 2.7403c-1.7438 1.993-2.9894 5.2314-1.4946 6.9752 2.4912 2.7403 5.9788 0 7.9716-2.9894 6.2278-9.7154 1.7438-14.697-3.2385-15.445-10.463-1.4946-20.179 11.957-27.652 16.939-4.9823 3.4876-7.2243 3.2385-7.2243 3.2385s8.9681-17.438-1.7438-20.179c-10.712-2.7403-28.399 15.445-35.872 30.143-4.7331 9.2172-6.7261 20.677 1.4946 23.417 8.2208 2.7403 22.172-11.957 25.41-16.441 3.2385-4.484 8.719-12.954 8.719-12.954s1.7438-0.24911 2.7403-0.49822c1.2455-0.24912 2.7403-0.74734 2.7403-0.74734s-1.993 3.4876-3.7367 7.2243c-1.993 4.484-7.9716 18.932 3.2385 23.168 10.961 3.9858 26.157-13.203 27.154-13.452 0 0-4.7331 11.957 2.4912 13.701 7.7225 1.993 16.441-7.9716 16.441-7.9716s-1.7438 7.4734 4.2349 8.2207c10.463 0.99646 29.645-26.905 29.645-26.905h-3.7367c0.24911 0-9.7154 12.704-14.448 15.196m-70.998-18.185c-0.24912 0.24911-3.7367 6.2279-6.7261 9.9646-3.2385 3.9858-8.9681 10.213-12.455 8.9681-5.4805-1.993 0.49822-13.95 4.484-19.68 3.9858-5.7296 4.484-6.477 4.7331-6.7261l0.24912-0.24912c0.24912 0.24912 1.4946 2.7403 3.9858 4.484 2.4912 1.7438 5.4805 2.4912 5.7296 2.4912v0.74735m4.484-9.2172c-0.99646 2.7403-1.993 4.484-1.993 4.7331-0.24912 0.74734-1.2455 0.49823-1.2455 0.49823-0.74734 0-7.7225-1.4946-7.4734-6.9752 0-5.2314 7.4734-10.463 10.213-8.2208 2.7403 2.2421 1.4946 7.4734 0.49823 9.9646m52.314 24.164c-2.4912 2.7403-3.9858 3.9858-5.4805 4.484-0.74734 0.24912-1.4946 0.24912-1.993-0.24912-1.993-1.2455-0.49822-5.7296 2.9894-12.206 3.2385-5.7296 7.7225-11.459 13.203-18.683 5.7296-6.9752 8.4698-7.7225 10.213-7.7225 1.4946 0 1.7438 1.4946 1.7438 1.4946s-12.206 21.424-16.69 27.652c-1.7438 2.2421-2.9894 3.9858-3.9858 5.2313"/><path d="m182.1 28.229h-10.463l-5.9788 9.4663h10.463z"/><path class="st0" d="m337.3 10.788c-7.7225 4.9823-18.434 9.4663-28.897 8.4698-2.7403 2.7403-5.4805 5.7296-8.2208 9.2172 17.936 3.4876 33.631-7.7225 42.1-16.939 5.2313-5.9788 7.7225-11.21 7.7225-11.21s-4.9823 5.4805-12.704 10.463"/><path class="st0" d="m308.16 96.481c-4.9823 2.7403-3.2385-1.7438-1.7438-3.9858 1.7438-2.7403 22.172-37.616 22.172-37.616h-10.961l-1.7438 2.7403s-2.242-3.9858-5.9788-3.9858c-6.477 0.24912-13.203 4.9823-20.677 13.701-5.4805 6.2279-14.697 20.428-14.697 20.428s-6.9752 10.961-10.712 9.9646c-5.9788-1.4946 4.9823-24.164 4.9823-24.164s5.9788-3.7367 13.452-10.213c4.7331-3.9858 10.463-9.4663 15.445-14.697 4.7331-4.7331 10.213-11.21 15.445-18.185-1.4946 0.24911-2.7403 0.49822-3.9858 0.49822-4.7331 6.2279-9.4663 11.708-13.701 16.192-6.2279 6.477-12.206 11.957-16.441 15.196-3.9858 3.2385-6.7261 4.7331-6.7261 4.7331s7.7225-15.694 20.677-33.381c12.954-17.687 30.641-33.631 29.396-25.908-0.49823 2.2421-1.7438 5.4805-3.7367 9.2172 1.4946-0.24911 2.7403-0.74734 4.2349-1.2455 2.9894-6.2279 3.9858-11.708 1.7438-13.203-9.7154-6.2279-33.631 19.43-45.588 34.378-11.957 14.697-22.919 37.616-22.919 37.616s-1.7438 0.74734-3.9858 1.2455c-1.2455 0.24912-1.7438 0.24912-1.993 0.24912-0.24912 0-0.24912-0.24912-0.24912-0.24912s10.463-19.68-0.24912-22.172c-10.463-2.4912-28.399 16.69-34.876 30.143-4.484 9.2172-6.9752 20.926 0.74734 23.417 8.2208 2.9894 22.172-11.957 25.41-16.441 3.2385-4.484 7.2243-11.459 7.2243-11.459s1.993-0.24911 2.9894-0.24911c1.993-0.24912 2.9894-0.49823 2.9894-0.49823s-1.4946 3.4876-2.7403 7.9716c-2.7403 8.4698-5.2314 20.428 4.7331 20.926 6.2279 0.24912 15.445-10.961 15.445-10.961s-2.4912 9.9646 5.7296 10.961c5.9788 0.74734 14.697-8.719 14.697-8.719s-1.993 7.9716 4.2349 8.719c5.2314 0.49822 12.455-5.4805 18.683-12.206 6.7261-7.2243 11.708-15.445 11.708-15.445h-3.7367c-0.2491 0.24912-8.719 13.203-14.697 16.69m-63.524-17.438c-0.24912 0.24911-2.9894 5.2313-5.9788 8.9681-3.2385 3.9858-8.9681 10.213-12.455 8.9681-5.4805-1.993 0.49823-13.95 4.484-19.68 3.9858-5.7296 4.484-6.2279 4.484-6.2279l0.24911-0.24912c0.24912 0.24912 1.4946 2.4912 3.7367 4.7331 2.4912 1.993 4.9823 3.2385 4.9823 3.2385 0.49824-0.24912 0.49824-0.24912 0.49824 0.24912m2.242-4.2349c-0.2491 0.49822-0.49822 0.49822-1.2455 0.49822-1.2455-0.49822-6.477-2.9894-6.477-8.4698 0-5.2314 7.4734-10.463 10.213-8.2208 2.7403 1.993 1.4946 7.2243 0.49822 9.9646-0.99646 2.9894-2.4912 5.7296-2.9894 6.2279m46.584 17.936c-2.4912 2.7403-3.9858 3.9858-5.2314 4.484-0.74734 0.24912-1.4946 0.24912-1.993-0.24912-1.993-1.2455-0.49822-5.9788 2.9894-12.455 3.2385-5.9788 6.9752-11.708 12.954-18.434 5.9788-6.7261 8.4699-6.9752 10.213-6.9752 1.4946 0 1.7438 1.4946 1.7438 1.4946s-0.24912 0.24912-0.24912 0.74734c-1.993 3.4876-12.206 20.926-16.192 26.406-1.993 1.993-3.2385 3.7367-4.2349 4.9823"/><path class="st0" d="m337.3 10.788c-7.7225 4.9823-18.434 9.4663-28.897 8.4698-2.7403 2.7403-5.4805 5.7296-8.2208 9.2172 17.936 3.4876 33.631-7.7225 42.1-16.939 5.2313-5.9788 7.7225-11.21 7.7225-11.21s-4.9823 5.4805-12.704 10.463"/><path class="st0" d="m263.82 1.0732c-9.7154-0.74734-17.438 2.7403-17.438 2.7403s-2.9894-3.9858-12.206-2.7403c-9.2172 1.2455-37.616 13.203-61.532 51.815-21.673 34.876-11.459 54.805 3.9858 54.556 16.939-0.24911 33.132-19.181 38.364-34.627 5.4805-15.445-0.99645-19.68-5.9788-19.43-5.4805 0.49822-15.196 5.4805-20.677 16.192-5.4805 10.712-5.4805 17.438-5.4805 17.438s2.7403-2.9894 6.9752-6.2279c4.2349-3.2385 7.4734-4.484 7.4734-4.484s0.74735-3.9858 2.7403-7.9716c1.9929-3.9858 4.9823-8.2207 8.719-9.2172 7.7225-1.993 3.9858 11.957-1.7438 21.175-2.9894 4.9823-13.701 18.932-22.919 18.932-9.2172 0-10.961-8.9681-8.9681-17.188 1.993-8.2208 4.7331-18.932 17.936-38.114 13.452-19.181 28.15-30.641 36.62-35.374 8.719-4.9823 12.206-2.7403 12.206-2.7403s-10.961 6.7261-17.438 14.946c-5.9788 7.9716-9.4663 16.69-6.7261 20.926 2.7403 3.9858 11.957 4.2349 22.172-10.712 10.213-14.697 7.7225-23.417 7.7225-23.417s1.2455-0.49823 1.9928-0.49823c4.9823-0.74734 8.9681 0.74734 15.196 3.7367 6.477 3.2385 12.704 8.719 21.175 12.954 2.4912-2.7403 5.4805-5.7296 8.4698-8.719-10.712-5.2313-19.43-13.452-30.641-13.95m-21.175 19.93c-2.7403 6.9752-6.9752 11.957-11.21 15.445-5.4805 4.7331-8.2208 4.7331-9.4663 3.7367-3.2385-2.4912 1.2455-11.957 8.719-20.428 7.7225-8.4699 14.199-10.961 14.199-10.961s1.2455 3.9858-2.242 12.206"/><path d="m12.209 128.62v3.9858h10.463v3.7367h-14.448v-18.932h14.199v3.7367h-10.213v3.9858h8.9681v3.4876z"/><path class="st0" d="m34.38 136.59c-4.9823 0-8.2207-2.7403-8.2207-8.4698v-10.961h4.2349v10.712c0 2.9894 1.4946 4.7331 3.9858 4.7331 2.4912 0 3.9858-1.4946 3.9858-4.484v-10.961h4.2349v10.712c0 5.9788-3.2385 8.719-8.2208 8.719"/><path class="st0" d="m58.541 129.61c2.4912-0.74734 3.9858-2.7403 3.9858-5.9788 0-3.9858-2.7403-6.2278-7.2243-6.2278h-8.719v19.181h4.2349v-5.9788h3.2385l3.9858 5.9788h4.9823zm-0.24912-5.7296c0 1.4946-1.2455 2.7403-3.2385 2.7403h-4.2349v-5.4805h3.9858c2.2421 0 3.4876 0.99646 3.4876 2.7403z"/><path class="st0" d="m75.731 117.16c-5.9788 0-10.213 4.484-10.213 9.9646s4.2349 9.7154 9.9646 9.7154c5.9788 0 10.213-4.484 10.213-9.9646s-4.2349-9.7154-9.9646-9.7154m5.7296 9.7154c0 3.2385-2.4912 5.9788-5.7296 5.9788-3.2385 0-5.7296-2.7403-5.7296-5.9788 0-3.2385 2.4912-5.9788 5.7296-5.9788 3.2385 0 5.7296 2.7403 5.7296 5.9788z"/><path class="st0" d="m97.152 117.41h-7.7225v18.932h4.2349v-5.7296h2.9894c4.2349 0 7.7225-2.242 7.7225-6.7261 0-3.7367-2.7403-6.477-7.2243-6.477m2.9894 6.7261c0 1.7438-1.2455 2.7403-3.2385 2.7403h-3.2385v-5.7296h3.2385c1.993 0 3.2385 0.99646 3.2385 2.9894z"/><path d="m111.6 128.62v3.9858h10.213v3.7367h-14.199v-18.932h14.199v3.7367h-10.213v3.9858h8.9681v3.4876z"/><path class="st0" d="m136.02 117.16h-3.7367l-8.2207 19.181h4.2349l1.7438-4.2349h7.9716l1.7438 4.2349h4.484zm-4.484 11.21 2.4912-6.2279 2.4912 6.2279z"/><path d="m163.92 117.41v18.932h-3.4876l-9.2172-11.957v11.957h-4.2349v-18.932h3.9858l8.9681 11.708v-11.708z"/><path class="st0" d="m184.34 117.41h-7.7225v18.932h4.2349v-5.7296h2.9894c4.2349 0 7.7225-2.242 7.7225-6.7261 0-3.7367-2.7403-6.477-7.2243-6.477m2.9894 6.7261c0 1.7438-1.2455 2.7403-3.2385 2.7403h-3.2385v-5.7296h3.2385c1.993 0 3.2385 0.99646 3.2385 2.9894z"/><path class="st0" d="m203.03 117.16h-3.7367l-8.2207 19.181h4.2349l1.7438-4.2349h7.9716l1.7438 4.2349h4.484zm-4.484 11.21 2.4912-6.2279 2.4912 6.2279z"/><path class="st0" d="m225.94 129.61c2.4912-0.74734 3.9858-2.7403 3.9858-5.9788 0-3.9858-2.7403-6.2278-7.2243-6.2278h-8.4699v19.181h4.2349v-5.9788h3.2385l3.9858 5.9788h4.9823zm0-5.7296c0 1.4946-1.2455 2.7403-3.2385 2.7403h-4.2349v-5.4805h3.9858c1.993 0 3.4876 0.99646 3.4876 2.7403z"/><path d="m242.39 121.14v15.196h-4.2349v-15.196h-5.7296v-3.7367h15.694v3.7367z"/><path d="m268.3 117.41v18.932h-3.4876l-9.4663-11.957v11.957h-3.9858v-18.932h3.7367l8.9681 11.708v-11.708z"/><path d="m276.77 128.62v3.9858h10.463v3.7367h-14.448v-18.932h14.448v3.7367h-10.463v3.9858h9.2172v3.4876z"/><path class="st0" d="m302.68 129.61c2.4912-0.74734 3.9858-2.7403 3.9858-5.9788 0-3.9858-2.7403-6.2278-7.2243-6.2278h-8.719v19.181h4.2349v-5.9788h3.2385l3.9858 5.9788h4.9823zm-0.24912-5.7296c0 1.4946-1.2455 2.7403-3.2385 2.7403h-4.2349v-5.4805h3.9858c2.2421 0 3.4876 0.99646 3.4876 2.7403z"/><path class="st0" d="m317.38 136.59c-2.7403 0-5.7296-0.99645-7.9716-2.9894l2.4912-2.9894c1.7438 1.4946 3.4876 2.2421 5.7296 2.2421 1.7438 0 2.7403-0.74734 2.7403-1.7438 0-0.99645-0.74734-1.4946-3.7367-2.4912-3.7367-0.99645-6.2279-1.993-6.2279-5.7296 0-3.4876 2.7403-5.7296 6.7261-5.7296 2.7403 0 4.9823 0.74734 6.9752 2.4912l-1.993 2.9894c-1.7438-1.2455-3.4876-1.7438-4.9823-1.7438-1.4946 0-2.4912 0.74734-2.4912 1.7438 0 1.2455 0.74734 1.7438 3.9858 2.4912 3.7367 0.99646 5.9788 2.4912 5.9788 5.7296-0.49824 3.7367-3.2385 5.7296-7.2243 5.7296"/></g></svg>
